<?xml version="1.0" encoding="UTF-8" standalone="no"?>
<!DOCTYPE svg PUBLIC "-//W3C//DTD SVG 1.1//EN" "http://www.w3.org/Graphics/SVG/1.1/DTD/svg11.dtd">
<svg width="100%" height="100%" viewBox="0 0 875 615" version="1.1" xmlns="http://www.w3.org/2000/svg" xmlns:xlink="http://www.w3.org/1999/xlink" xml:space="preserve" xmlns:serif="http://www.serif.com/" style="fill-rule:evenodd;clip-rule:evenodd;stroke-linecap:round;stroke-linejoin:round;stroke-miterlimit:1.5;">
    <g id="Outline">
        <g transform="matrix(1,0,0,1,-428.205,-1338.44)">
            <g transform="matrix(0.0863229,0,0,1.17358,619.632,1651.31)">
                <rect x="150" y="25.091" width="173.766" height="32.708" style="fill:none;stroke:black;stroke-width:1px;"/>
            </g>
            <g transform="matrix(0.0863229,0,0,1.17358,649.65,1651.31)">
                <rect x="150" y="25.091" width="173.766" height="32.708" style="fill:none;stroke:black;stroke-width:1px;"/>
            </g>
            <g transform="matrix(0.0863229,0,0,1.17358,679.668,1651.31)">
                <rect x="150" y="25.091" width="173.766" height="32.708" style="fill:none;stroke:black;stroke-width:1px;"/>
            </g>
            <g transform="matrix(0.0863229,0,0,1.17358,709.685,1651.31)">
                <rect x="150" y="25.091" width="173.766" height="32.708" style="fill:none;stroke:black;stroke-width:1px;"/>
            </g>
            <g transform="matrix(0.0863229,0,0,1.17358,739.703,1651.31)">
                <rect x="150" y="25.091" width="173.766" height="32.708" style="fill:none;stroke:black;stroke-width:1px;"/>
            </g>
            <g transform="matrix(0.0863229,0,0,1.17358,769.721,1651.31)">
                <rect x="150" y="25.091" width="173.766" height="32.708" style="fill:none;stroke:black;stroke-width:1px;"/>
            </g>
            <g transform="matrix(0.0863229,0,0,1.17358,799.738,1651.31)">
                <rect x="150" y="25.091" width="173.766" height="32.708" style="fill:none;stroke:black;stroke-width:1px;"/>
            </g>
            <g transform="matrix(0.0863229,0,0,1.17358,829.756,1651.31)">
                <rect x="150" y="25.091" width="173.766" height="32.708" style="fill:none;stroke:black;stroke-width:1px;"/>
            </g>
            <g transform="matrix(0.0863229,0,0,1.17358,859.774,1651.31)">
                <rect x="150" y="25.091" width="173.766" height="32.708" style="fill:none;stroke:black;stroke-width:1px;"/>
            </g>
            <g transform="matrix(0.0863229,0,0,1.17358,889.791,1651.31)">
                <rect x="150" y="25.091" width="173.766" height="32.708" style="fill:none;stroke:black;stroke-width:1px;"/>
            </g>
            <g transform="matrix(0.0863229,0,0,1.17358,919.809,1651.31)">
                <rect x="150" y="25.091" width="173.766" height="32.708" style="fill:none;stroke:black;stroke-width:1px;"/>
            </g>
            <g transform="matrix(0.0863229,0,0,1.17358,949.826,1651.31)">
                <rect x="150" y="25.091" width="173.766" height="32.708" style="fill:none;stroke:black;stroke-width:1px;"/>
            </g>
            <g transform="matrix(0.0863229,0,0,1.17358,979.844,1651.31)">
                <rect x="150" y="25.091" width="173.766" height="32.708" style="fill:none;stroke:black;stroke-width:1px;"/>
            </g>
            <g transform="matrix(0.0863229,0,0,1.17358,1009.86,1651.31)">
                <rect x="150" y="25.091" width="173.766" height="32.708" style="fill:none;stroke:black;stroke-width:1px;"/>
            </g>
            <g transform="matrix(0.0863229,0,0,1.17358,1039.88,1651.31)">
                <rect x="150" y="25.091" width="173.766" height="32.708" style="fill:none;stroke:black;stroke-width:1px;"/>
            </g>
            <g transform="matrix(0.0863229,0,0,1.17358,1069.9,1651.31)">
                <rect x="150" y="25.091" width="173.766" height="32.708" style="fill:none;stroke:black;stroke-width:1px;"/>
            </g>
        </g>
        <g transform="matrix(3.2626,0,0,5.04965,-335.846,215.619)">
            <rect x="150" y="25.091" width="173.766" height="32.708" style="fill:none;stroke:black;stroke-width:0.2px;"/>
        </g>
        <g transform="matrix(3.2626,0,0,1.17358,-335.846,312.873)">
            <rect x="150" y="25.091" width="173.766" height="32.708" style="fill:none;stroke:black;stroke-width:0.34px;"/>
        </g>
        <g transform="matrix(1,0,0,1,29.7324,353.484)">
            <path d="M205.358,84.519L210.583,90.294L204.442,95.886L173.183,95.886L167.958,90.203L174.192,84.519L205.358,84.519Z" style="fill:none;fill-rule:nonzero;stroke:black;stroke-width:0.83px;stroke-linecap:butt;stroke-miterlimit:2;"/>
            <path d="M272.825,84.519L278.05,90.294L271.908,95.886L240.65,95.886L235.425,90.203L241.658,84.519L272.825,84.519ZM234.233,88.828L233.775,89.286L228.55,89.286L231.85,51.336L234.967,48.494L242.667,57.019L240.375,83.236L234.233,88.828ZM227.633,131.911L225.067,129.069L228.367,91.119L233.683,91.119L234.05,91.578L239.183,97.169L236.892,123.386L227.633,131.911ZM236.342,47.211L239.458,44.369L282.083,44.369L284.742,47.211L275.483,55.736L244.133,55.736L236.342,47.211ZM279.242,91.578L279.7,91.211L285.017,91.211L281.717,129.069L278.6,131.911L270.9,123.386L273.192,97.169L279.242,91.578ZM285.933,48.494L288.5,51.336L285.2,89.286L279.883,89.286L279.517,88.919L274.383,83.328L276.675,57.019L285.933,48.494ZM277.225,133.194L274.108,136.036L231.483,136.036L228.825,133.194L238.083,124.669L269.433,124.669L277.225,133.194Z" style="fill:none;fill-rule:nonzero;stroke:black;stroke-width:0.83px;stroke-linecap:butt;stroke-miterlimit:2;"/>
            <path d="M295.375,128.153C295.68,128.886 295.833,129.619 295.833,130.353C295.833,131.086 295.68,131.819 295.375,132.553C295.069,133.286 294.672,133.897 294.183,134.386C293.694,134.875 293.083,135.272 292.35,135.578C291.617,135.883 290.883,136.036 290.15,136.036C289.417,136.036 288.683,135.883 287.95,135.578C287.217,135.272 286.605,134.875 286.117,134.386C285.628,133.897 285.23,133.286 284.925,132.553C284.619,131.819 284.467,131.086 284.467,130.353C284.467,129.619 284.619,128.886 284.925,128.153C285.23,127.419 285.628,126.808 286.117,126.319C286.605,125.83 287.217,125.433 287.95,125.128C288.683,124.822 289.417,124.669 290.15,124.669C290.883,124.669 291.617,124.822 292.35,125.128C293.083,125.433 293.694,125.83 294.183,126.319C294.672,126.808 295.069,127.419 295.375,128.153Z" style="fill:none;fill-rule:nonzero;stroke:black;stroke-width:0.83px;stroke-linecap:butt;stroke-miterlimit:2;"/>
            <path d="M347.625,84.519L352.85,90.294L346.708,95.886L315.45,95.886L310.225,90.203L316.458,84.519L347.625,84.519ZM309.033,88.828L308.575,89.286L303.35,89.286L306.65,51.336L309.767,48.494L317.467,57.019L315.175,83.236L309.033,88.828ZM302.433,131.911L299.867,129.069L303.167,91.119L308.483,91.119L308.85,91.578L313.983,97.169L311.692,123.386L302.433,131.911ZM311.142,47.211L314.258,44.369L356.883,44.369L359.542,47.211L350.283,55.736L318.933,55.736L311.142,47.211ZM354.042,91.578L354.5,91.211L359.817,91.211L356.517,129.069L353.4,131.911L345.7,123.386L347.992,97.169L354.042,91.578ZM360.733,48.494L363.3,51.336L360,89.286L354.683,89.286L354.317,88.919L349.183,83.328L351.475,57.019L360.733,48.494ZM352.025,133.194L348.908,136.036L306.283,136.036L303.625,133.194L312.883,124.669L344.233,124.669L352.025,133.194Z" style="fill:none;fill-rule:nonzero;stroke:black;stroke-width:0.83px;stroke-linecap:butt;stroke-miterlimit:2;"/>
            <path d="M370.175,128.153C370.48,128.886 370.633,129.619 370.633,130.353C370.633,131.086 370.48,131.819 370.175,132.553C369.869,133.286 369.472,133.897 368.983,134.386C368.494,134.875 367.883,135.272 367.15,135.578C366.417,135.883 365.683,136.036 364.95,136.036C364.217,136.036 363.483,135.883 362.75,135.578C362.017,135.272 361.405,134.875 360.917,134.386C360.428,133.897 360.03,133.286 359.725,132.553C359.419,131.819 359.267,131.086 359.267,130.353C359.267,129.619 359.419,128.886 359.725,128.153C360.03,127.419 360.428,126.808 360.917,126.319C361.405,125.83 362.017,125.433 362.75,125.128C363.483,124.822 364.217,124.669 364.95,124.669C365.683,124.669 366.417,124.822 367.15,125.128C367.883,125.433 368.494,125.83 368.983,126.319C369.472,126.808 369.869,127.419 370.175,128.153Z" style="fill:none;fill-rule:nonzero;stroke:black;stroke-width:0.83px;stroke-linecap:butt;stroke-miterlimit:2;"/>
            <path d="M385.025,70.311C385.33,71.044 385.483,71.778 385.483,72.511C385.483,73.244 385.33,73.978 385.025,74.711C384.719,75.444 384.322,76.055 383.833,76.544C383.344,77.033 382.733,77.43 382,77.736C381.267,78.042 380.533,78.194 379.8,78.194C379.067,78.194 378.333,78.042 377.6,77.736C376.867,77.43 376.255,77.033 375.767,76.544C375.278,76.055 374.88,75.444 374.575,74.711C374.269,73.978 374.117,73.244 374.117,72.511C374.117,71.778 374.269,71.044 374.575,70.311C374.88,69.639 375.278,69.058 375.767,68.569C376.378,68.019 376.989,67.592 377.6,67.286C378.15,67.042 378.883,66.919 379.8,66.919C380.717,66.919 381.45,67.042 382,67.286C382.611,67.592 383.222,68.019 383.833,68.569C384.322,69.058 384.719,69.639 385.025,70.311ZM381.725,108.078C382.03,108.811 382.183,109.544 382.183,110.278C382.183,111.011 382.03,111.744 381.725,112.478C381.419,113.211 381.022,113.822 380.533,114.311C380.044,114.8 379.433,115.197 378.7,115.503C377.967,115.808 377.233,115.961 376.5,115.961C375.767,115.961 375.033,115.808 374.3,115.503C373.567,115.197 372.955,114.8 372.467,114.311C371.978,113.822 371.58,113.211 371.275,112.478C370.969,111.744 370.817,111.011 370.817,110.278C370.817,109.544 370.969,108.811 371.275,108.078C371.58,107.405 371.978,106.825 372.467,106.336C373.078,105.725 373.689,105.297 374.3,105.053C374.85,104.808 375.583,104.686 376.5,104.686C377.417,104.686 378.15,104.808 378.7,105.053C379.311,105.297 379.922,105.725 380.533,106.336C381.022,106.825 381.419,107.405 381.725,108.078Z" style="fill:none;fill-rule:nonzero;stroke:black;stroke-width:0.83px;stroke-linecap:butt;stroke-miterlimit:2;"/>
            <path d="M440.758,84.519L445.983,90.294L439.842,95.886L408.583,95.886L403.358,90.203L409.592,84.519L440.758,84.519ZM402.167,88.828L401.708,89.286L396.483,89.286L399.783,51.336L402.9,48.494L410.6,57.019L408.308,83.236L402.167,88.828ZM395.567,131.911L393,129.069L396.3,91.119L401.617,91.119L401.983,91.578L407.117,97.169L404.825,123.386L395.567,131.911ZM404.275,47.211L407.392,44.369L450.017,44.369L452.675,47.211L443.417,55.736L412.067,55.736L404.275,47.211ZM447.175,91.578L447.633,91.211L452.95,91.211L449.65,129.069L446.533,131.911L438.833,123.386L441.125,97.169L447.175,91.578ZM453.867,48.494L456.433,51.336L453.133,89.286L447.817,89.286L447.45,88.919L442.317,83.328L444.608,57.019L453.867,48.494ZM445.158,133.194L442.042,136.036L399.417,136.036L396.758,133.194L406.017,124.669L437.367,124.669L445.158,133.194Z" style="fill:none;fill-rule:nonzero;stroke:black;stroke-width:0.83px;stroke-linecap:butt;stroke-miterlimit:2;"/>
            <path d="M463.308,128.153C463.614,128.886 463.767,129.619 463.767,130.353C463.767,131.086 463.614,131.819 463.308,132.553C463.003,133.286 462.605,133.897 462.117,134.386C461.628,134.875 461.017,135.272 460.283,135.578C459.55,135.883 458.817,136.036 458.083,136.036C457.35,136.036 456.617,135.883 455.883,135.578C455.15,135.272 454.539,134.875 454.05,134.386C453.561,133.897 453.164,133.286 452.858,132.553C452.553,131.819 452.4,131.086 452.4,130.353C452.4,129.619 452.553,128.886 452.858,128.153C453.164,127.419 453.561,126.808 454.05,126.319C454.539,125.83 455.15,125.433 455.883,125.128C456.617,124.822 457.35,124.669 458.083,124.669C458.817,124.669 459.55,124.822 460.283,125.128C461.017,125.433 461.628,125.83 462.117,126.319C462.605,126.808 463.003,127.419 463.308,128.153Z" style="fill:none;fill-rule:nonzero;stroke:black;stroke-width:0.83px;stroke-linecap:butt;stroke-miterlimit:2;"/>
            <path d="M515.558,84.519L520.783,90.294L514.642,95.886L483.383,95.886L478.158,90.203L484.392,84.519L515.558,84.519ZM476.967,88.828L476.508,89.286L471.283,89.286L474.583,51.336L477.7,48.494L485.4,57.019L483.108,83.236L476.967,88.828ZM470.367,131.911L467.8,129.069L471.1,91.119L476.417,91.119L476.783,91.578L481.917,97.169L479.625,123.386L470.367,131.911ZM479.075,47.211L482.192,44.369L524.817,44.369L527.475,47.211L518.217,55.736L486.867,55.736L479.075,47.211ZM521.975,91.578L522.433,91.211L527.75,91.211L524.45,129.069L521.333,131.911L513.633,123.386L515.925,97.169L521.975,91.578ZM528.667,48.494L531.233,51.336L527.933,89.286L522.617,89.286L522.25,88.919L517.117,83.328L519.408,57.019L528.667,48.494ZM519.958,133.194L516.842,136.036L474.217,136.036L471.558,133.194L480.817,124.669L512.167,124.669L519.958,133.194Z" style="fill:none;fill-rule:nonzero;stroke:black;stroke-width:0.83px;stroke-linecap:butt;stroke-miterlimit:2;"/>
            <path d="M538.108,128.153C538.414,128.886 538.567,129.619 538.567,130.353C538.567,131.086 538.414,131.819 538.108,132.553C537.803,133.286 537.405,133.897 536.917,134.386C536.428,134.875 535.817,135.272 535.083,135.578C534.35,135.883 533.617,136.036 532.883,136.036C532.15,136.036 531.417,135.883 530.683,135.578C529.95,135.272 529.339,134.875 528.85,134.386C528.361,133.897 527.964,133.286 527.658,132.553C527.353,131.819 527.2,131.086 527.2,130.353C527.2,129.619 527.353,128.886 527.658,128.153C527.964,127.419 528.361,126.808 528.85,126.319C529.339,125.83 529.95,125.433 530.683,125.128C531.417,124.822 532.15,124.669 532.883,124.669C533.617,124.669 534.35,124.822 535.083,125.128C535.817,125.433 536.428,125.83 536.917,126.319C537.405,126.808 537.803,127.419 538.108,128.153Z" style="fill:none;fill-rule:nonzero;stroke:black;stroke-width:0.83px;stroke-linecap:butt;stroke-miterlimit:2;"/>
            <path d="M590.358,84.519L595.583,90.294L589.442,95.886L558.183,95.886L552.958,90.203L559.192,84.519L590.358,84.519ZM551.767,88.828L551.308,89.286L546.083,89.286L549.383,51.336L552.5,48.494L560.2,57.019L557.908,83.236L551.767,88.828ZM545.167,131.911L542.6,129.069L545.9,91.119L551.217,91.119L551.583,91.578L556.717,97.169L554.425,123.386L545.167,131.911ZM553.875,47.211L556.992,44.369L599.617,44.369L602.275,47.211L593.017,55.736L561.667,55.736L553.875,47.211ZM596.775,91.578L597.233,91.211L602.55,91.211L599.25,129.069L596.133,131.911L588.433,123.386L590.725,97.169L596.775,91.578ZM603.467,48.494L606.033,51.336L602.733,89.286L597.417,89.286L597.05,88.919L591.917,83.328L594.208,57.019L603.467,48.494ZM594.758,133.194L591.642,136.036L549.017,136.036L546.358,133.194L555.617,124.669L586.967,124.669L594.758,133.194Z" style="fill:none;fill-rule:nonzero;stroke:black;stroke-width:0.83px;stroke-linecap:butt;stroke-miterlimit:2;"/>
        </g>
        <g transform="matrix(1,0,0,1,-464.527,-1338.44)">
            <g transform="matrix(1.28048,0,0,1.28048,252.626,1242.77)">
                <g transform="matrix(1,0,-0.0874887,1,557.874,270.038)">
                    <path d="M128.758,133.178L125.2,133.178L124.646,136.036L118.317,136.036L123.187,115.386L131.033,115.386L135.933,136.036L129.312,136.036L128.758,133.178ZM125.9,128.278L128,128.278L127.037,121.569L126.921,121.569L125.9,128.278Z" style="fill:none;fill-rule:nonzero;stroke:black;stroke-width:0.82px;stroke-linecap:butt;stroke-miterlimit:2;"/>
                </g>
                <g transform="matrix(1,0,-0.0874887,1,557.874,270.038)">
                    <path d="M151.946,124.253L151.829,124.253L149.262,136.036L145.237,136.036L142.875,124.253L142.758,124.253L143.021,136.036L137.333,136.036L137.333,115.386L144.887,115.386L147.308,126.178L147.425,126.178L149.817,115.386L157.837,115.386L157.837,136.036L151.654,136.036L151.946,124.253Z" style="fill:none;fill-rule:nonzero;stroke:black;stroke-width:0.82px;stroke-linecap:butt;stroke-miterlimit:2;"/>
                </g>
            </g>
            <g transform="matrix(1.28048,0,0,1.28048,253.626,1242.77)">
                <g transform="matrix(1,0,-0.0874887,1,557.874,270.038)">
                    <path d="M123.975,158.728L123.975,165.203L117.792,165.203L117.792,144.553L125.171,144.553C125.987,144.553 126.814,144.669 127.65,144.903C128.486,145.136 129.239,145.525 129.91,146.069C130.581,146.614 131.126,147.333 131.544,148.228C131.962,149.122 132.171,150.24 132.171,151.582C132.171,152.865 131.971,153.959 131.573,154.863C131.174,155.767 130.654,156.506 130.012,157.08C129.371,157.653 128.642,158.071 127.825,158.334C127.008,158.596 126.182,158.728 125.346,158.728L123.975,158.728ZM123.975,149.861L123.975,153.653L124.733,153.653C125.142,153.653 125.516,153.478 125.856,153.128C126.196,152.778 126.367,152.301 126.367,151.699C126.367,151.037 126.196,150.566 125.856,150.284C125.516,150.002 125.142,149.861 124.733,149.861L123.975,149.861Z" style="fill:none;fill-rule:nonzero;stroke:black;stroke-width:0.82px;stroke-linecap:butt;stroke-miterlimit:2;"/>
                </g>
                <g transform="matrix(1,0,-0.0874887,1,557.874,270.038)">
                    <path d="M148.796,153.419L148.679,153.419L146.112,165.203L142.087,165.203L139.725,153.419L139.608,153.419L139.871,165.203L134.183,165.203L134.183,144.553L141.737,144.553L144.158,155.344L144.275,155.344L146.667,144.553L154.687,144.553L154.687,165.203L148.504,165.203L148.796,153.419Z" style="fill:none;fill-rule:nonzero;stroke:black;stroke-width:0.82px;stroke-linecap:butt;stroke-miterlimit:2;"/>
                </g>
            </g>
        </g>
        <g id="Bell" transform="matrix(0.211181,0,0,0.211181,-203.985,332.061)">
            <g transform="matrix(1.65474,0,0,1.65474,1813.76,295.526)">
                <path d="M47.917,100L52.083,100C56.655,100 60.417,96.238 60.417,91.667L39.583,91.667C39.583,96.238 43.345,100 47.917,100Z" style="fill:none;fill-rule:nonzero;stroke:black;stroke-width:2.38px;stroke-linecap:butt;stroke-miterlimit:2;"/>
            </g>
            <g transform="matrix(1.65474,0,0,1.65474,1813.76,295.526)">
                <path d="M80.208,68.75L79.861,68.75L75.944,45.418C74.729,36.337 68.825,28.534 60.417,24.894L60.417,24.92C60.417,19.206 55.714,14.504 50,14.504C44.286,14.504 39.583,19.206 39.583,24.92L39.583,24.894C31.175,28.534 25.271,36.337 24.056,45.418L20.139,68.75L19.792,68.75C14.649,68.75 10.417,72.982 10.417,78.125C10.417,83.268 14.649,87.5 19.792,87.5L80.208,87.5C85.351,87.5 89.583,83.268 89.583,78.125C89.583,72.982 85.351,68.75 80.208,68.75Z" style="fill:none;fill-rule:nonzero;stroke:black;stroke-width:2.38px;stroke-linecap:butt;stroke-miterlimit:2;"/>
            </g>
        </g>
        <g id="Battery" transform="matrix(0.509842,0,-6.93889e-18,0.509842,640.575,454.183)">
            <g transform="matrix(1,0,0,1,0.475017,0)">
                <path d="M87.5,42.795L84.5,42.795L84.5,56.795L87.5,56.795C89.157,56.795 90.5,55.452 90.5,53.795L90.5,45.795C90.5,44.138 89.157,42.795 87.5,42.795Z" style="fill:none;fill-rule:nonzero;stroke:black;stroke-width:1.63px;stroke-linecap:butt;stroke-miterlimit:2;"/>
            </g>
            <g transform="matrix(2.0813,0,0,1.44181,-15.9616,-14.1396)">
                <path d="M47.789,37.04C47.789,33.983 46.069,31.501 43.951,31.501L16.071,31.501C13.953,31.501 12.234,33.983 12.234,37.04L12.234,52.34C12.234,55.397 13.953,57.879 16.071,57.879L43.951,57.879C46.069,57.879 47.789,55.397 47.789,52.34L47.789,37.04ZM47.003,37.04L47.003,52.34C47.003,54.771 45.636,56.745 43.951,56.745L16.071,56.745C14.386,56.745 13.019,54.771 13.019,52.34L13.019,37.04C13.019,34.609 14.386,32.634 16.071,32.634L43.951,32.634C45.636,32.634 47.003,34.609 47.003,37.04Z"/>
            </g>
        </g>
        <g id="Arrows" transform="matrix(1.74702e-17,0.28531,-0.28531,1.74702e-17,245.325,462.56)">
            <path d="M85.164,29.419C86.336,30.59 87.927,31.249 89.583,31.249C93.012,31.249 95.833,28.428 95.833,25C95.833,23.343 95.174,21.753 94.002,20.581L75.26,1.839C74.966,1.545 74.643,1.28 74.296,1.05C74.157,0.957 74.006,0.895 73.862,0.814C73.655,0.689 73.441,0.577 73.221,0.477C73.022,0.404 72.819,0.341 72.613,0.288C72.427,0.233 72.249,0.161 72.056,0.123C71.249,-0.037 70.418,-0.037 69.61,0.123C69.417,0.162 69.239,0.233 69.052,0.289C68.847,0.341 68.644,0.404 68.445,0.477C68.224,0.577 68.009,0.69 67.802,0.816C67.659,0.896 67.509,0.958 67.371,1.05C67.024,1.28 66.701,1.545 66.406,1.839L47.664,20.581C46.493,21.753 45.834,23.343 45.834,25C45.834,28.428 48.655,31.249 52.083,31.249C53.74,31.249 55.331,30.59 56.502,29.419L64.583,21.338L64.583,93.75C64.583,97.179 67.405,100 70.833,100C74.262,100 77.083,97.179 77.083,93.75L77.083,21.338L85.164,29.419Z" style="fill:none;fill-rule:nonzero;stroke:black;stroke-width:2.92px;stroke-linecap:butt;stroke-miterlimit:2;"/>
            <path d="M43.498,70.581L35.417,78.662L35.417,6.25C35.417,2.821 32.595,0 29.167,0C25.738,-0 22.917,2.821 22.917,6.25L22.917,78.662L14.836,70.581C13.664,69.41 12.073,68.751 10.417,68.751C6.988,68.751 4.167,71.572 4.167,75C4.167,76.657 4.826,78.247 5.998,79.419L24.74,98.161C25.034,98.455 25.357,98.72 25.704,98.95C25.842,99.042 25.992,99.104 26.135,99.184C26.343,99.31 26.558,99.423 26.779,99.523C26.978,99.596 27.18,99.659 27.386,99.711C27.572,99.767 27.751,99.838 27.944,99.877C28.751,100.041 29.583,100.041 30.39,99.877C30.582,99.839 30.761,99.767 30.947,99.712C31.152,99.659 31.356,99.596 31.555,99.523C31.775,99.423 31.989,99.311 32.196,99.186C32.34,99.105 32.491,99.043 32.63,98.95C32.976,98.72 33.299,98.455 33.594,98.161L52.336,79.419C53.507,78.247 54.166,76.657 54.166,75C54.166,71.572 51.345,68.751 47.917,68.751C46.26,68.751 44.669,69.41 43.498,70.581L43.498,70.581Z" style="fill:none;fill-rule:nonzero;stroke:black;stroke-width:2.92px;stroke-linecap:butt;stroke-miterlimit:2;"/>
        </g>
        <g id="Sleep" transform="matrix(0.3609,0,0,0.3609,176.163,455.616)">
            <path d="M86.576,84.239C86.474,83.799 86.128,83.458 85.687,83.363C84.246,83.052 82.808,82.674 81.416,82.236C66.969,77.707 55.8,66.938 50.77,52.692C45.739,38.445 47.67,23.05 56.07,10.454C56.882,9.236 57.762,8.039 58.687,6.895C58.971,6.544 59.026,6.061 58.83,5.655C58.632,5.25 58.219,4.994 57.768,5C52.889,5.064 48.06,5.928 43.414,7.568C20.018,15.829 7.704,41.584 15.965,64.98C24.226,88.377 49.982,100.691 73.379,92.43C78.024,90.79 82.324,88.431 86.162,85.416C86.516,85.138 86.678,84.679 86.576,84.239Z" style="fill:none;fill-rule:nonzero;stroke:black;stroke-width:2.31px;stroke-linecap:butt;stroke-miterlimit:2;"/>
        </g>
        <g id="Antenna" transform="matrix(3.32205e-17,-0.542532,0.542532,3.32205e-17,219.248,451.773)">
            <g transform="matrix(0.48658,-5.99757e-33,5.99757e-33,0.48658,32.0488,-13.4391)">
                <circle cx="50" cy="85.42" r="10.417" style="fill:none;stroke:black;stroke-width:3.16px;stroke-linecap:butt;stroke-miterlimit:2;"/>
            </g>
            <g transform="matrix(1,0,0,1,-6,0.000735979)">
                <path d="M88.869,0.964C88.269,0.345 87.443,-0.004 86.582,-0.004C84.834,-0.004 83.395,1.434 83.395,3.183C83.395,4.015 83.721,4.816 84.304,5.411C90.315,11.489 93.708,19.688 93.75,28.236C93.599,36.719 90.183,44.825 84.217,50.858C83.647,51.451 83.328,52.243 83.328,53.066C83.328,54.815 84.767,56.254 86.515,56.254C87.387,56.254 88.222,55.896 88.823,55.265C95.891,48.035 99.898,38.346 100,28.236C100.009,18.041 96.009,8.241 88.869,0.964Z" style="fill:none;fill-rule:nonzero;stroke:black;stroke-width:1.54px;stroke-linecap:butt;stroke-miterlimit:2;"/>
            </g>
            <g transform="matrix(1,0,0,1,-6,-0.00140519)">
                <path d="M72.917,28.245C72.814,31.21 71.63,34.036 69.589,36.189C69.049,36.791 68.749,37.573 68.749,38.383C68.749,40.184 70.231,41.666 72.033,41.666C72.964,41.666 73.853,41.27 74.476,40.577C77.509,37.188 79.181,32.793 79.167,28.245C79.268,23.586 77.569,19.062 74.425,15.621C73.805,14.961 72.938,14.585 72.032,14.585C70.232,14.585 68.75,16.067 68.75,17.867C68.75,18.702 69.068,19.505 69.639,20.113C71.727,22.307 72.9,25.217 72.917,28.245Z" style="fill:none;fill-rule:nonzero;stroke:black;stroke-width:1.54px;stroke-linecap:butt;stroke-miterlimit:2;"/>
            </g>
            <g transform="matrix(1,0,0,1,-6,0)">
                <path d="M83.333,28.231C83.466,33.591 81.522,38.801 77.912,42.765C77.376,43.332 77.077,44.083 77.077,44.864C77.077,46.541 78.457,47.921 80.135,47.921C80.981,47.921 81.791,47.57 82.368,46.952C87.083,41.869 89.667,35.163 89.583,28.231C89.749,21.207 87.146,14.393 82.341,9.267C81.764,8.664 80.965,8.321 80.13,8.321C78.453,8.321 77.073,9.701 77.073,11.378C77.073,12.174 77.384,12.939 77.939,13.509C81.605,17.513 83.545,22.807 83.333,28.231Z" style="fill:none;fill-rule:nonzero;stroke:black;stroke-width:1.54px;stroke-linecap:butt;stroke-miterlimit:2;"/>
            </g>
        </g>
    </g>
    <g id="Positive">
        <g transform="matrix(1,0,0,1,-428.205,-1574.07)">
            <g transform="matrix(0.0863229,0,0,1.17358,619.632,1651.31)">
                <rect x="150" y="25.091" width="173.766" height="32.708"/>
            </g>
            <g transform="matrix(0.0863229,0,0,1.17358,649.65,1651.31)">
                <rect x="150" y="25.091" width="173.766" height="32.708"/>
            </g>
            <g transform="matrix(0.0863229,0,0,1.17358,679.668,1651.31)">
                <rect x="150" y="25.091" width="173.766" height="32.708"/>
            </g>
            <g transform="matrix(0.0863229,0,0,1.17358,709.685,1651.31)">
                <rect x="150" y="25.091" width="173.766" height="32.708"/>
            </g>
            <g transform="matrix(0.0863229,0,0,1.17358,739.703,1651.31)">
                <rect x="150" y="25.091" width="173.766" height="32.708"/>
            </g>
            <g transform="matrix(0.0863229,0,0,1.17358,769.721,1651.31)">
                <rect x="150" y="25.091" width="173.766" height="32.708"/>
            </g>
            <g transform="matrix(0.0863229,0,0,1.17358,799.738,1651.31)">
                <rect x="150" y="25.091" width="173.766" height="32.708"/>
            </g>
            <g transform="matrix(0.0863229,0,0,1.17358,829.756,1651.31)">
                <rect x="150" y="25.091" width="173.766" height="32.708"/>
            </g>
            <g transform="matrix(0.0863229,0,0,1.17358,859.774,1651.31)">
                <rect x="150" y="25.091" width="173.766" height="32.708"/>
            </g>
            <g transform="matrix(0.0863229,0,0,1.17358,889.791,1651.31)">
                <rect x="150" y="25.091" width="173.766" height="32.708"/>
            </g>
            <g transform="matrix(0.0863229,0,0,1.17358,919.809,1651.31)">
                <rect x="150" y="25.091" width="173.766" height="32.708"/>
            </g>
            <g transform="matrix(0.0863229,0,0,1.17358,949.826,1651.31)">
                <rect x="150" y="25.091" width="173.766" height="32.708"/>
            </g>
            <g transform="matrix(0.0863229,0,0,1.17358,979.844,1651.31)">
                <rect x="150" y="25.091" width="173.766" height="32.708"/>
            </g>
            <g transform="matrix(0.0863229,0,0,1.17358,1009.86,1651.31)">
                <rect x="150" y="25.091" width="173.766" height="32.708"/>
            </g>
            <g transform="matrix(0.0863229,0,0,1.17358,1039.88,1651.31)">
                <rect x="150" y="25.091" width="173.766" height="32.708"/>
            </g>
            <g transform="matrix(0.0863229,0,0,1.17358,1069.9,1651.31)">
                <rect x="150" y="25.091" width="173.766" height="32.708"/>
            </g>
        </g>
        <g transform="matrix(3.2626,0,0,5.04965,-335.846,-20.0125)">
            <rect x="150" y="25.091" width="173.766" height="32.708" style="fill:none;stroke:black;stroke-width:0.24px;"/>
        </g>
        <g transform="matrix(3.2626,0,0,1.17358,-335.846,77.2419)">
            <rect x="150" y="25.091" width="173.766" height="32.708" style="fill:none;stroke:black;stroke-width:0.41px;"/>
        </g>
        <g transform="matrix(1,0,0,1,29.7324,117.853)">
            <path d="M205.358,84.519L210.583,90.294L204.442,95.886L173.183,95.886L167.958,90.203L174.192,84.519L205.358,84.519Z" style="fill-rule:nonzero;"/>
            <path d="M272.825,84.519L278.05,90.294L271.908,95.886L240.65,95.886L235.425,90.203L241.658,84.519L272.825,84.519ZM234.233,88.828L233.775,89.286L228.55,89.286L231.85,51.336L234.967,48.494L242.667,57.019L240.375,83.236L234.233,88.828ZM227.633,131.911L225.067,129.069L228.367,91.119L233.683,91.119L234.05,91.578L239.183,97.169L236.892,123.386L227.633,131.911ZM236.342,47.211L239.458,44.369L282.083,44.369L284.742,47.211L275.483,55.736L244.133,55.736L236.342,47.211ZM279.242,91.578L279.7,91.211L285.017,91.211L281.717,129.069L278.6,131.911L270.9,123.386L273.192,97.169L279.242,91.578ZM285.933,48.494L288.5,51.336L285.2,89.286L279.883,89.286L279.517,88.919L274.383,83.328L276.675,57.019L285.933,48.494ZM277.225,133.194L274.108,136.036L231.483,136.036L228.825,133.194L238.083,124.669L269.433,124.669L277.225,133.194Z" style="fill-rule:nonzero;"/>
            <path d="M295.375,128.153C295.68,128.886 295.833,129.619 295.833,130.353C295.833,131.086 295.68,131.819 295.375,132.553C295.069,133.286 294.672,133.897 294.183,134.386C293.694,134.875 293.083,135.272 292.35,135.578C291.617,135.883 290.883,136.036 290.15,136.036C289.417,136.036 288.683,135.883 287.95,135.578C287.217,135.272 286.605,134.875 286.117,134.386C285.628,133.897 285.23,133.286 284.925,132.553C284.619,131.819 284.467,131.086 284.467,130.353C284.467,129.619 284.619,128.886 284.925,128.153C285.23,127.419 285.628,126.808 286.117,126.319C286.605,125.83 287.217,125.433 287.95,125.128C288.683,124.822 289.417,124.669 290.15,124.669C290.883,124.669 291.617,124.822 292.35,125.128C293.083,125.433 293.694,125.83 294.183,126.319C294.672,126.808 295.069,127.419 295.375,128.153Z" style="fill-rule:nonzero;"/>
            <path d="M347.625,84.519L352.85,90.294L346.708,95.886L315.45,95.886L310.225,90.203L316.458,84.519L347.625,84.519ZM309.033,88.828L308.575,89.286L303.35,89.286L306.65,51.336L309.767,48.494L317.467,57.019L315.175,83.236L309.033,88.828ZM302.433,131.911L299.867,129.069L303.167,91.119L308.483,91.119L308.85,91.578L313.983,97.169L311.692,123.386L302.433,131.911ZM311.142,47.211L314.258,44.369L356.883,44.369L359.542,47.211L350.283,55.736L318.933,55.736L311.142,47.211ZM354.042,91.578L354.5,91.211L359.817,91.211L356.517,129.069L353.4,131.911L345.7,123.386L347.992,97.169L354.042,91.578ZM360.733,48.494L363.3,51.336L360,89.286L354.683,89.286L354.317,88.919L349.183,83.328L351.475,57.019L360.733,48.494ZM352.025,133.194L348.908,136.036L306.283,136.036L303.625,133.194L312.883,124.669L344.233,124.669L352.025,133.194Z" style="fill-rule:nonzero;"/>
            <path d="M370.175,128.153C370.48,128.886 370.633,129.619 370.633,130.353C370.633,131.086 370.48,131.819 370.175,132.553C369.869,133.286 369.472,133.897 368.983,134.386C368.494,134.875 367.883,135.272 367.15,135.578C366.417,135.883 365.683,136.036 364.95,136.036C364.217,136.036 363.483,135.883 362.75,135.578C362.017,135.272 361.405,134.875 360.917,134.386C360.428,133.897 360.03,133.286 359.725,132.553C359.419,131.819 359.267,131.086 359.267,130.353C359.267,129.619 359.419,128.886 359.725,128.153C360.03,127.419 360.428,126.808 360.917,126.319C361.405,125.83 362.017,125.433 362.75,125.128C363.483,124.822 364.217,124.669 364.95,124.669C365.683,124.669 366.417,124.822 367.15,125.128C367.883,125.433 368.494,125.83 368.983,126.319C369.472,126.808 369.869,127.419 370.175,128.153Z" style="fill-rule:nonzero;"/>
            <path d="M385.025,70.311C385.33,71.044 385.483,71.778 385.483,72.511C385.483,73.244 385.33,73.978 385.025,74.711C384.719,75.444 384.322,76.055 383.833,76.544C383.344,77.033 382.733,77.43 382,77.736C381.267,78.042 380.533,78.194 379.8,78.194C379.067,78.194 378.333,78.042 377.6,77.736C376.867,77.43 376.255,77.033 375.767,76.544C375.278,76.055 374.88,75.444 374.575,74.711C374.269,73.978 374.117,73.244 374.117,72.511C374.117,71.778 374.269,71.044 374.575,70.311C374.88,69.639 375.278,69.058 375.767,68.569C376.378,68.019 376.989,67.592 377.6,67.286C378.15,67.042 378.883,66.919 379.8,66.919C380.717,66.919 381.45,67.042 382,67.286C382.611,67.592 383.222,68.019 383.833,68.569C384.322,69.058 384.719,69.639 385.025,70.311ZM381.725,108.078C382.03,108.811 382.183,109.544 382.183,110.278C382.183,111.011 382.03,111.744 381.725,112.478C381.419,113.211 381.022,113.822 380.533,114.311C380.044,114.8 379.433,115.197 378.7,115.503C377.967,115.808 377.233,115.961 376.5,115.961C375.767,115.961 375.033,115.808 374.3,115.503C373.567,115.197 372.955,114.8 372.467,114.311C371.978,113.822 371.58,113.211 371.275,112.478C370.969,111.744 370.817,111.011 370.817,110.278C370.817,109.544 370.969,108.811 371.275,108.078C371.58,107.405 371.978,106.825 372.467,106.336C373.078,105.725 373.689,105.297 374.3,105.053C374.85,104.808 375.583,104.686 376.5,104.686C377.417,104.686 378.15,104.808 378.7,105.053C379.311,105.297 379.922,105.725 380.533,106.336C381.022,106.825 381.419,107.405 381.725,108.078Z" style="fill-rule:nonzero;"/>
            <path d="M440.758,84.519L445.983,90.294L439.842,95.886L408.583,95.886L403.358,90.203L409.592,84.519L440.758,84.519ZM402.167,88.828L401.708,89.286L396.483,89.286L399.783,51.336L402.9,48.494L410.6,57.019L408.308,83.236L402.167,88.828ZM395.567,131.911L393,129.069L396.3,91.119L401.617,91.119L401.983,91.578L407.117,97.169L404.825,123.386L395.567,131.911ZM404.275,47.211L407.392,44.369L450.017,44.369L452.675,47.211L443.417,55.736L412.067,55.736L404.275,47.211ZM447.175,91.578L447.633,91.211L452.95,91.211L449.65,129.069L446.533,131.911L438.833,123.386L441.125,97.169L447.175,91.578ZM453.867,48.494L456.433,51.336L453.133,89.286L447.817,89.286L447.45,88.919L442.317,83.328L444.608,57.019L453.867,48.494ZM445.158,133.194L442.042,136.036L399.417,136.036L396.758,133.194L406.017,124.669L437.367,124.669L445.158,133.194Z" style="fill-rule:nonzero;"/>
            <path d="M463.308,128.153C463.614,128.886 463.767,129.619 463.767,130.353C463.767,131.086 463.614,131.819 463.308,132.553C463.003,133.286 462.605,133.897 462.117,134.386C461.628,134.875 461.017,135.272 460.283,135.578C459.55,135.883 458.817,136.036 458.083,136.036C457.35,136.036 456.617,135.883 455.883,135.578C455.15,135.272 454.539,134.875 454.05,134.386C453.561,133.897 453.164,133.286 452.858,132.553C452.553,131.819 452.4,131.086 452.4,130.353C452.4,129.619 452.553,128.886 452.858,128.153C453.164,127.419 453.561,126.808 454.05,126.319C454.539,125.83 455.15,125.433 455.883,125.128C456.617,124.822 457.35,124.669 458.083,124.669C458.817,124.669 459.55,124.822 460.283,125.128C461.017,125.433 461.628,125.83 462.117,126.319C462.605,126.808 463.003,127.419 463.308,128.153Z" style="fill-rule:nonzero;"/>
            <path d="M515.558,84.519L520.783,90.294L514.642,95.886L483.383,95.886L478.158,90.203L484.392,84.519L515.558,84.519ZM476.967,88.828L476.508,89.286L471.283,89.286L474.583,51.336L477.7,48.494L485.4,57.019L483.108,83.236L476.967,88.828ZM470.367,131.911L467.8,129.069L471.1,91.119L476.417,91.119L476.783,91.578L481.917,97.169L479.625,123.386L470.367,131.911ZM479.075,47.211L482.192,44.369L524.817,44.369L527.475,47.211L518.217,55.736L486.867,55.736L479.075,47.211ZM521.975,91.578L522.433,91.211L527.75,91.211L524.45,129.069L521.333,131.911L513.633,123.386L515.925,97.169L521.975,91.578ZM528.667,48.494L531.233,51.336L527.933,89.286L522.617,89.286L522.25,88.919L517.117,83.328L519.408,57.019L528.667,48.494ZM519.958,133.194L516.842,136.036L474.217,136.036L471.558,133.194L480.817,124.669L512.167,124.669L519.958,133.194Z" style="fill-rule:nonzero;"/>
            <path d="M538.108,128.153C538.414,128.886 538.567,129.619 538.567,130.353C538.567,131.086 538.414,131.819 538.108,132.553C537.803,133.286 537.405,133.897 536.917,134.386C536.428,134.875 535.817,135.272 535.083,135.578C534.35,135.883 533.617,136.036 532.883,136.036C532.15,136.036 531.417,135.883 530.683,135.578C529.95,135.272 529.339,134.875 528.85,134.386C528.361,133.897 527.964,133.286 527.658,132.553C527.353,131.819 527.2,131.086 527.2,130.353C527.2,129.619 527.353,128.886 527.658,128.153C527.964,127.419 528.361,126.808 528.85,126.319C529.339,125.83 529.95,125.433 530.683,125.128C531.417,124.822 532.15,124.669 532.883,124.669C533.617,124.669 534.35,124.822 535.083,125.128C535.817,125.433 536.428,125.83 536.917,126.319C537.405,126.808 537.803,127.419 538.108,128.153Z" style="fill-rule:nonzero;"/>
            <path d="M590.358,84.519L595.583,90.294L589.442,95.886L558.183,95.886L552.958,90.203L559.192,84.519L590.358,84.519ZM551.767,88.828L551.308,89.286L546.083,89.286L549.383,51.336L552.5,48.494L560.2,57.019L557.908,83.236L551.767,88.828ZM545.167,131.911L542.6,129.069L545.9,91.119L551.217,91.119L551.583,91.578L556.717,97.169L554.425,123.386L545.167,131.911ZM553.875,47.211L556.992,44.369L599.617,44.369L602.275,47.211L593.017,55.736L561.667,55.736L553.875,47.211ZM596.775,91.578L597.233,91.211L602.55,91.211L599.25,129.069L596.133,131.911L588.433,123.386L590.725,97.169L596.775,91.578ZM603.467,48.494L606.033,51.336L602.733,89.286L597.417,89.286L597.05,88.919L591.917,83.328L594.208,57.019L603.467,48.494ZM594.758,133.194L591.642,136.036L549.017,136.036L546.358,133.194L555.617,124.669L586.967,124.669L594.758,133.194Z" style="fill-rule:nonzero;"/>
        </g>
        <g transform="matrix(1,0,0,1,-464.527,-1574.07)">
            <g transform="matrix(1.28048,0,0,1.28048,252.626,1242.77)">
                <g transform="matrix(1,0,-0.0874887,1,557.874,270.038)">
                    <path d="M128.758,133.178L125.2,133.178L124.646,136.036L118.317,136.036L123.187,115.386L131.033,115.386L135.933,136.036L129.312,136.036L128.758,133.178ZM125.9,128.278L128,128.278L127.037,121.569L126.921,121.569L125.9,128.278Z" style="fill-rule:nonzero;"/>
                </g>
                <g transform="matrix(1,0,-0.0874887,1,557.874,270.038)">
                    <path d="M151.946,124.253L151.829,124.253L149.262,136.036L145.237,136.036L142.875,124.253L142.758,124.253L143.021,136.036L137.333,136.036L137.333,115.386L144.887,115.386L147.308,126.178L147.425,126.178L149.817,115.386L157.837,115.386L157.837,136.036L151.654,136.036L151.946,124.253Z" style="fill-rule:nonzero;"/>
                </g>
            </g>
            <g transform="matrix(1.28048,0,0,1.28048,253.626,1242.77)">
                <g transform="matrix(1,0,-0.0874887,1,557.874,270.038)">
                    <path d="M123.975,158.728L123.975,165.203L117.792,165.203L117.792,144.553L125.171,144.553C125.987,144.553 126.814,144.669 127.65,144.903C128.486,145.136 129.239,145.525 129.91,146.069C130.581,146.614 131.126,147.333 131.544,148.228C131.962,149.122 132.171,150.24 132.171,151.582C132.171,152.865 131.971,153.959 131.573,154.863C131.174,155.767 130.654,156.506 130.012,157.08C129.371,157.653 128.642,158.071 127.825,158.334C127.008,158.596 126.182,158.728 125.346,158.728L123.975,158.728ZM123.975,149.861L123.975,153.653L124.733,153.653C125.142,153.653 125.516,153.478 125.856,153.128C126.196,152.778 126.367,152.301 126.367,151.699C126.367,151.037 126.196,150.566 125.856,150.284C125.516,150.002 125.142,149.861 124.733,149.861L123.975,149.861Z" style="fill-rule:nonzero;"/>
                </g>
                <g transform="matrix(1,0,-0.0874887,1,557.874,270.038)">
                    <path d="M148.796,153.419L148.679,153.419L146.112,165.203L142.087,165.203L139.725,153.419L139.608,153.419L139.871,165.203L134.183,165.203L134.183,144.553L141.737,144.553L144.158,155.344L144.275,155.344L146.667,144.553L154.687,144.553L154.687,165.203L148.504,165.203L148.796,153.419Z" style="fill-rule:nonzero;"/>
                </g>
            </g>
        </g>
        <g id="Bell1" serif:id="Bell" transform="matrix(0.211181,0,0,0.211181,-203.985,96.43)">
            <g transform="matrix(1.65474,0,0,1.65474,1813.76,295.526)">
                <path d="M47.917,100L52.083,100C56.655,100 60.417,96.238 60.417,91.667L39.583,91.667C39.583,96.238 43.345,100 47.917,100Z" style="fill-rule:nonzero;"/>
            </g>
            <g transform="matrix(1.65474,0,0,1.65474,1813.76,295.526)">
                <path d="M80.208,68.75L79.861,68.75L75.944,45.418C74.729,36.337 68.825,28.534 60.417,24.894L60.417,24.92C60.417,19.206 55.714,14.504 50,14.504C44.286,14.504 39.583,19.206 39.583,24.92L39.583,24.894C31.175,28.534 25.271,36.337 24.056,45.418L20.139,68.75L19.792,68.75C14.649,68.75 10.417,72.982 10.417,78.125C10.417,83.268 14.649,87.5 19.792,87.5L80.208,87.5C85.351,87.5 89.583,83.268 89.583,78.125C89.583,72.982 85.351,68.75 80.208,68.75Z" style="fill-rule:nonzero;"/>
            </g>
        </g>
        <g id="Battery1" serif:id="Battery" transform="matrix(0.509842,0,-6.93889e-18,0.509842,640.575,218.551)">
            <g transform="matrix(1,0,0,1,0.475017,0)">
                <path d="M87.5,42.795L84.5,42.795L84.5,56.795L87.5,56.795C89.157,56.795 90.5,55.452 90.5,53.795L90.5,45.795C90.5,44.138 89.157,42.795 87.5,42.795Z" style="fill-rule:nonzero;"/>
            </g>
            <g transform="matrix(2.0813,0,0,1.44181,-15.9616,-14.1396)">
                <path d="M47.789,37.04C47.789,33.983 46.069,31.501 43.951,31.501L16.071,31.501C13.953,31.501 12.234,33.983 12.234,37.04L12.234,52.34C12.234,55.397 13.953,57.879 16.071,57.879L43.951,57.879C46.069,57.879 47.789,55.397 47.789,52.34L47.789,37.04Z"/>
            </g>
        </g>
        <g id="Arrows1" serif:id="Arrows" transform="matrix(1.74702e-17,0.28531,-0.28531,1.74702e-17,245.325,226.928)">
            <path d="M85.164,29.419C86.336,30.59 87.927,31.249 89.583,31.249C93.012,31.249 95.833,28.428 95.833,25C95.833,23.343 95.174,21.753 94.002,20.581L75.26,1.839C74.966,1.545 74.643,1.28 74.296,1.05C74.157,0.957 74.006,0.895 73.862,0.814C73.655,0.689 73.441,0.577 73.221,0.477C73.022,0.404 72.819,0.341 72.613,0.288C72.427,0.233 72.249,0.161 72.056,0.123C71.249,-0.037 70.418,-0.037 69.61,0.123C69.417,0.162 69.239,0.233 69.052,0.289C68.847,0.341 68.644,0.404 68.445,0.477C68.224,0.577 68.009,0.69 67.802,0.816C67.659,0.896 67.509,0.958 67.371,1.05C67.024,1.28 66.701,1.545 66.406,1.839L47.664,20.581C46.493,21.753 45.834,23.343 45.834,25C45.834,28.428 48.655,31.249 52.083,31.249C53.74,31.249 55.331,30.59 56.502,29.419L64.583,21.338L64.583,93.75C64.583,97.179 67.405,100 70.833,100C74.262,100 77.083,97.179 77.083,93.75L77.083,21.338L85.164,29.419Z" style="fill-rule:nonzero;"/>
            <path d="M43.498,70.581L35.417,78.662L35.417,6.25C35.417,2.821 32.595,0 29.167,0C25.738,-0 22.917,2.821 22.917,6.25L22.917,78.662L14.836,70.581C13.664,69.41 12.073,68.751 10.417,68.751C6.988,68.751 4.167,71.572 4.167,75C4.167,76.657 4.826,78.247 5.998,79.419L24.74,98.161C25.034,98.455 25.357,98.72 25.704,98.95C25.842,99.042 25.992,99.104 26.135,99.184C26.343,99.31 26.558,99.423 26.779,99.523C26.978,99.596 27.18,99.659 27.386,99.711C27.572,99.767 27.751,99.838 27.944,99.877C28.751,100.041 29.583,100.041 30.39,99.877C30.582,99.839 30.761,99.767 30.947,99.712C31.152,99.659 31.356,99.596 31.555,99.523C31.775,99.423 31.989,99.311 32.196,99.186C32.34,99.105 32.491,99.043 32.63,98.95C32.976,98.72 33.299,98.455 33.594,98.161L52.336,79.419C53.507,78.247 54.166,76.657 54.166,75C54.166,71.572 51.345,68.751 47.917,68.751C46.26,68.751 44.669,69.41 43.498,70.581L43.498,70.581Z" style="fill-rule:nonzero;"/>
        </g>
        <g id="Sleep1" serif:id="Sleep" transform="matrix(0.3609,0,0,0.3609,176.163,219.985)">
            <path d="M86.576,84.239C86.474,83.799 86.128,83.458 85.687,83.363C84.246,83.052 82.808,82.674 81.416,82.236C66.969,77.707 55.8,66.938 50.77,52.692C45.739,38.445 47.67,23.05 56.07,10.454C56.882,9.236 57.762,8.039 58.687,6.895C58.971,6.544 59.026,6.061 58.83,5.655C58.632,5.25 58.219,4.994 57.768,5C52.889,5.064 48.06,5.928 43.414,7.568C20.018,15.829 7.704,41.584 15.965,64.98C24.226,88.377 49.982,100.691 73.379,92.43C78.024,90.79 82.324,88.431 86.162,85.416C86.516,85.138 86.678,84.679 86.576,84.239Z" style="fill-rule:nonzero;"/>
        </g>
        <g id="Antenna1" serif:id="Antenna" transform="matrix(3.32205e-17,-0.542532,0.542532,3.32205e-17,219.248,216.142)">
            <g transform="matrix(0.48658,-5.99757e-33,5.99757e-33,0.48658,32.0488,-13.4391)">
                <circle cx="50" cy="85.42" r="10.417"/>
            </g>
            <g transform="matrix(1,0,0,1,-6,0.000735979)">
                <path d="M88.869,0.964C88.269,0.345 87.443,-0.004 86.582,-0.004C84.834,-0.004 83.395,1.434 83.395,3.183C83.395,4.015 83.721,4.816 84.304,5.411C90.315,11.489 93.708,19.688 93.75,28.236C93.599,36.719 90.183,44.825 84.217,50.858C83.647,51.451 83.328,52.243 83.328,53.066C83.328,54.815 84.767,56.254 86.515,56.254C87.387,56.254 88.222,55.896 88.823,55.265C95.891,48.035 99.898,38.346 100,28.236C100.009,18.041 96.009,8.241 88.869,0.964Z" style="fill-rule:nonzero;"/>
            </g>
            <g transform="matrix(1,0,0,1,-6,-0.00140519)">
                <path d="M72.917,28.245C72.814,31.21 71.63,34.036 69.589,36.189C69.049,36.791 68.749,37.573 68.749,38.383C68.749,40.184 70.231,41.666 72.033,41.666C72.964,41.666 73.853,41.27 74.476,40.577C77.509,37.188 79.181,32.793 79.167,28.245C79.268,23.586 77.569,19.062 74.425,15.621C73.805,14.961 72.938,14.585 72.032,14.585C70.232,14.585 68.75,16.067 68.75,17.867C68.75,18.702 69.068,19.505 69.639,20.113C71.727,22.307 72.9,25.217 72.917,28.245Z" style="fill-rule:nonzero;"/>
            </g>
            <g transform="matrix(1,0,0,1,-6,0)">
                <path d="M83.333,28.231C83.466,33.591 81.522,38.801 77.912,42.765C77.376,43.332 77.077,44.083 77.077,44.864C77.077,46.541 78.457,47.921 80.135,47.921C80.981,47.921 81.791,47.57 82.368,46.952C87.083,41.869 89.667,35.163 89.583,28.231C89.749,21.207 87.146,14.393 82.341,9.267C81.764,8.664 80.965,8.321 80.13,8.321C78.453,8.321 77.073,9.701 77.073,11.378C77.073,12.174 77.384,12.939 77.939,13.509C81.605,17.513 83.545,22.807 83.333,28.231Z" style="fill-rule:nonzero;"/>
            </g>
        </g>
    </g>
</svg>
